Coordinates
version=1
nRows=14
nColumns=40
inDegrees=yes

Units are S.I. units (second, meters, Newtons, ...)
Angles are in degrees.

endheader
time	pelvis_tilt	pelvis_list	pelvis_rotation	pelvis_tx	pelvis_ty	pelvis_tz	hip_flexion_r	hip_adduction_r	hip_rotation_r	knee_angle_r	knee_angle_r_beta	ankle_angle_r	subtalar_angle_r	mtp_angle_r	hip_flexion_l	hip_adduction_l	hip_rotation_l	knee_angle_l	knee_angle_l_beta	ankle_angle_l	subtalar_angle_l	mtp_angle_l	lumbar_extension	lumbar_bending	lumbar_rotation	arm_flex_r	arm_add_r	arm_rot_r	elbow_flex_r	pro_sup_r	wrist_flex_r	wrist_dev_r	arm_flex_l	arm_add_l	arm_rot_l	elbow_flex_l	pro_sup_l	wrist_flex_l	wrist_dev_l
     35.48928571	     -6.01032783	     -6.19696390	      2.67783376	      1.03936189	      0.93090429	      0.51989185	     12.65959600	      4.67379136	    -17.81296324	     16.40362659	     16.40362659	     10.78836103	      5.15605454	     -1.96941654	     41.74230744	    -13.38317578	      3.75811987	     63.01435145	     63.01435145	      5.47260079	    -17.21180489	      8.22013713	    -13.81685930	      6.21199063	      4.32343715	     18.86156050	    -17.35541740	     -1.00530011	     56.45238778	     45.34392622	      0.00000000	      0.00000000	     -2.92000004	     -8.28633869	     -0.95398530	     33.13707593	     46.91483368	      0.00000000	      0.00000000
     35.50107143	     -6.14485472	     -6.29691129	      2.61698695	      1.03816105	      0.93086041	      0.51966332	     11.85025938	      4.91584650	    -17.89389511	     15.53119344	     15.53119344	     10.96280456	      5.79130574	     -2.08203523	     42.43187416	    -13.23966706	      3.76508675	     60.34781309	     60.34781309	      5.52703765	    -17.08059874	      8.58830953	    -13.77679312	      6.38260070	      4.48837079	     20.87052055	    -17.36544739	     -0.88561743	     57.87487510	     45.30100537	      0.00000000	      0.00000000	     -4.41021530	     -8.28310450	     -0.64990006	     32.08439677	     46.83553159	      0.00000000	      0.00000000
     35.51285714	     -6.32253625	     -6.40138690	      2.52903409	      1.03691741	      0.93061459	      0.51935587	     11.08021117	      5.15830770	    -17.93741089	     14.65523820	     14.65523820	     11.12524804	      6.47628109	     -2.20744653	     43.00749758	    -13.10877548	      3.79565903	     57.40168301	     57.40168301	      5.50823149	    -16.80013565	      8.91156308	    -13.73575612	      6.55188168	      4.72602386	     22.78180215	    -17.41171320	     -0.66607280	     59.39380916	     45.25117590	      0.00000000	      0.00000000	     -5.88587900	     -8.26547354	     -0.28794029	     31.32741171	     46.74620834	      0.00000000	      0.00000000
     35.52464286	     -6.51075990	     -6.47598510	      2.39653254	      1.03576420	      0.93021557	      0.51895769	     10.29021683	      5.38054189	    -17.93318904	     13.72801004	     13.72801004	     11.32754771	      7.13166738	     -2.27407622	     43.37027845	    -12.93733334	      3.86811531	     54.17215297	     54.17215297	      5.54100677	    -16.43527761	      9.21759585	    -13.63914140	      6.66634276	      4.97571779	     24.63000871	    -17.36367991	     -0.49257760	     60.93761828	     45.20193304	      0.00000000	      0.00000000	     -7.36345152	     -8.26168307	      0.02396885	     30.77623375	     46.66638568	      0.00000000	      0.00000000
     35.53642857	     -6.66709337	     -6.59735282	      2.27608363	      1.03473381	      0.92963922	      0.51841729	      9.39640151	      5.65402796	    -18.00052932	     12.69227609	     12.69227609	     11.53808543	      7.95301700	     -2.34744177	     43.54630217	    -12.79493996	      4.04583681	     50.75692983	     50.75692983	      5.61540072	    -15.88435437	      9.42751615	    -13.57162267	      6.86370137	      5.09536549	     26.49125117	    -17.24157340	     -0.18876879	     62.79018651	     45.13819260	      0.00000000	      0.00000000	     -8.90955311	     -8.24173246	      0.41349756	     30.36628267	     46.57343477	      0.00000000	      0.00000000
     35.54821429	     -6.89362300	     -6.70556968	      2.10584941	      1.03376249	      0.92875144	      0.51779178	      8.64310343	      5.88520904	    -17.97879965	     11.80379730	     11.80379730	     11.80963468	      8.67202623	     -2.43605865	     43.60730627	    -12.65586596	      4.25552387	     47.17076325	     47.17076325	      5.76160702	    -15.13898528	      9.68178584	    -13.40168787	      7.01276135	      5.39784498	     28.27320413	    -17.19383702	      0.05016735	     64.47669253	     45.08239685	      0.00000000	      0.00000000	    -10.34954793	     -8.19829880	      0.72492819	     30.08402021	     46.49567801	      0.00000000	      0.00000000
     35.56000000	     -6.98006598	     -6.88030718	      1.97014494	      1.03309128	      0.92788652	      0.51710321	      7.59684287	      6.22570669	    -18.08045956	     10.66877103	     10.66877103	     12.01646694	      9.61034740	     -2.50244431	     43.34662503	    -12.59399438	      4.51796173	     43.46669345	     43.46669345	      5.94513234	    -14.26901141	      9.90926525	    -13.38828173	      7.28035239	      5.39426732	     29.98531802	    -16.93098891	      0.56006324	     66.77252672	     44.99761764	      0.00000000	      0.00000000	    -11.95599021	     -8.16884167	      1.17798712	     29.96376289	     46.39043213	      0.00000000	      0.00000000
     35.57178571	     -7.12466210	     -7.01552041	      1.78572558	      1.03254405	      0.92674738	      0.51629702	      6.68043586	      6.48901556	    -18.07587959	      9.69777569	      9.69777569	     12.27856889	     10.41839366	     -2.60917435	     42.98528278	    -12.54479583	      4.68027538	     39.75025978	     39.75025978	      6.13297292	    -13.23897402	     10.28087078	    -13.26835231	      7.45769355	      5.55173105	     31.61124520	    -16.75818199	      1.02093446	     68.91788069	     44.92049097	      0.00000000	      0.00000000	    -13.44021656	     -8.11981314	      1.58293228	     29.93780529	     46.29499432	      0.00000000	      0.00000000
     35.58357143	     -7.20208307	     -7.21597225	      1.59603873	      1.03227919	      0.92545245	      0.51544603	      5.66769115	      6.82243138	    -18.10363693	      8.71023301	      8.71023301	     12.55274223	     11.24585289	     -2.73641794	     42.44628398	    -12.59012768	      4.80126672	     36.15600854	     36.15600854	      6.39875898	    -12.16290229	     10.78849882	    -13.20986874	      7.69692041	      5.62137897	     33.15442435	    -16.50323011	      1.57440354	     71.29983734	     44.83368478	      0.00000000	      0.00000000	    -14.93878901	     -8.04746594	      2.02629284	     29.99200327	     46.19372420	      0.00000000	      0.00000000
     35.59535714	     -7.24185366	     -7.42675045	      1.40945724	      1.03225653	      0.92404306	      0.51441938	      4.64874707	      7.13874880	    -18.01374649	      7.82830931	      7.82830931	     12.81538477	     12.02539432	     -2.88996288	     41.81513058	    -12.65691249	      4.83482522	     32.83691559	     32.83691559	      6.58184498	    -11.00913579	     11.49883950	    -13.13760203	      8.00024960	      5.71445262	     34.59067469	    -16.24223492	      2.17525138	     73.79105251	     44.74361797	      0.00000000	      0.00000000	    -16.40870486	     -7.96118051	      2.48981341	     30.11856841	     46.09095970	      0.00000000	      0.00000000
     35.60714286	     -7.27575181	     -7.70896718	      1.23892450	      1.03249654	      0.92245221	      0.51334557	      3.59388825	      7.52843013	    -17.96132414	      6.91644388	      6.91644388	     13.03087465	     12.77134449	     -3.09784400	     41.20136557	    -12.81722658	      4.67572121	     29.95143880	     29.95143880	      6.84330519	     -9.91309901	     12.46613896	    -13.07063721	      8.38363899	      5.81930382	     35.84860789	    -16.13138214	      3.00867063	     76.86890490	     44.63367313	      0.00000000	      0.00000000	    -17.88611385	     -7.92700105	      3.17260794	     30.57178236	     45.95252984	      0.00000000	      0.00000000
     35.61892857	     -7.30115719	     -7.80483321	      0.97422121	      1.03292229	      0.92091265	      0.51221462	      2.71511575	      7.64798482	    -17.67766310	      6.41377448	      6.41377448	     13.44338756	     13.14280397	     -3.28695399	     40.39798938	    -12.86193521	      4.17045300	     27.30397151	     27.30397151	      6.85209379	     -8.97933645	     13.26812590	    -12.92839526	      8.45037353	      5.95631965	     37.11856704	    -15.68858337	      3.32254528	     78.78584270	     44.57345928	      0.00000000	      0.00000000	    -19.07752375	     -7.82575483	      3.51913654	     30.48768038	     45.87797643	      0.00000000	      0.00000000
     35.63071429	     -7.32763551	     -8.02849661	      0.74204912	      1.03362136	      0.91923187	      0.51094402	      1.75587770	      7.90712432	    -17.40283825	      5.76866589	      5.76866589	     13.69713289	     13.58728764	     -3.54760989	     39.76453047	    -12.99337519	      3.61886991	     25.41080885	     25.41080885	      7.11056415	     -8.08624862	     14.36257424	    -12.83895845	      8.70209562	      6.26894766	     37.88266903	    -15.87777358	      4.19767389	     82.45743121	     44.46732231	      0.00000000	      0.00000000	    -20.32757003	     -7.91121140	      4.61687684	     31.26403550	     45.68605855	      0.00000000	      0.00000000
     35.64250000	     -7.51005712	     -8.30609973	      0.42269081	      1.03438400	      0.91725164	      0.50963089	      1.23561040	      8.11417197	    -17.07408088	      5.68506833	      5.68506833	     14.16769291	     13.82785129	     -3.72567164	     39.40550167	    -13.15327460	      3.09191546	     24.16526496	     24.16526496	      6.93282013	     -7.80023780	     14.70852109	    -12.35821593	      8.97825536	      6.65475887	     39.06396912	    -15.56147242	      4.14787779	     83.29833704	     44.44868808	      0.00000000	      0.00000000	    -21.24161606	     -7.83090588	      4.70714997	     30.94790780	     45.65898220	      0.00000000	      0.00000000
